<svg xmlns="http://www.w3.org/2000/svg" viewBox="0 0 210 45" width="210" height="45">
  <svg x="0" y="5" width="36" height="34" viewBox="0 3 40 34">
    <polygon points="27,20 23.5,26.06 16.5,26.06 13,20 16.5,13.94 23.5,13.94" fill="#F97316"/>
    <polygon points="39.12,20 35.62,26.06 28.62,26.06 25.12,20 28.62,13.94 35.62,13.94" fill="#FB923C"/>
    <polygon points="33.06,9.5 29.56,15.56 22.56,15.56 19.06,9.5 22.56,3.44 29.56,3.44" fill="#FDBA74"/>
    <polygon points="20.94,9.5 17.44,15.56 10.44,15.56 6.94,9.5 10.44,3.44 17.44,3.44" fill="#FB923C"/>
    <polygon points="14.88,20 11.38,26.06 4.38,26.06 0.88,20 4.38,13.94 11.38,13.94" fill="#FED7AA"/>
    <polygon points="20.94,30.5 17.44,36.56 10.44,36.56 6.94,30.5 10.44,24.44 17.44,24.44" fill="#F97316"/>
    <polygon points="33.06,30.5 29.56,36.56 22.56,36.56 19.06,30.5 22.56,24.44 29.56,24.44" fill="#EA580C"/>
  </svg>
  <text x="46" y="27" font-family="'Plus Jakarta Sans', Arial, sans-serif" font-weight="900" font-size="22" letter-spacing="-0.5" fill="#1A1814">Hire<tspan fill="#F97316">View</tspan></text>
  <text x="46" y="40" font-family="'Plus Jakarta Sans', Arial, sans-serif" font-weight="400" font-size="10" letter-spacing="1.5" fill="#8C8882">ATS · RECRUTEMENT</text>
</svg>
